<?xml version="1.0" encoding="UTF-8" standalone="no"?>
<!DOCTYPE svg PUBLIC "-//W3C//DTD SVG 1.1//EN" "http://www.w3.org/Graphics/SVG/1.1/DTD/svg11.dtd">
<svg version="1.1" xmlns="http://www.w3.org/2000/svg" xmlns:xlink="http://www.w3.org/1999/xlink" preserveAspectRatio="xMidYMid meet" viewBox="36.592862767090345 107.34109396596658 167.05585106382975 90.53191489361701" width="163.06" height="86.53"><defs><path d="M81.59 151.9L62.59 151.9" id="bUQkfxQPv"></path><path d="M114.99 182.37C114.99 189.27 120.59 194.87 127.49 194.87C134.39 194.87 139.99 189.27 139.99 182.37C139.99 175.47 134.39 169.87 127.49 169.87C120.59 169.87 114.99 175.47 114.99 182.37Z" id="b2wTbnrI49"></path><path d="M62.59 151.9C62.59 158.8 56.99 164.4 50.09 164.4C43.19 164.4 37.59 158.8 37.59 151.9C37.59 145.01 43.19 139.4 50.09 139.4C56.99 139.4 62.59 145.01 62.59 151.9Z" id="a3pLJ6TB1e"></path><path d="M135.56 174L148.99 160.56" id="d1ikrrYz80"></path><path d="M147.82 143.36L134.39 129.92" id="fchOfLDKX"></path><path d="M200.65 120.84C200.65 127.74 195.05 133.34 188.15 133.34C181.25 133.34 175.65 127.74 175.65 120.84C175.65 113.94 181.25 108.34 188.15 108.34C195.05 108.34 200.65 113.94 200.65 120.84Z" id="ar15qfv3Q"></path><path d="M137.56 121.59C137.56 128.48 131.96 134.09 125.06 134.09C118.16 134.09 112.56 128.48 112.56 121.59C112.56 114.69 118.16 109.09 125.06 109.09C131.96 109.09 137.56 114.69 137.56 121.59Z" id="l18iP1Ka2J"></path><path d="M106.59 151.9C106.59 158.8 100.99 164.4 94.09 164.4C87.19 164.4 81.59 158.8 81.59 151.9C81.59 145.01 87.19 139.4 94.09 139.4C100.99 139.4 106.59 145.01 106.59 151.9Z" id="b1mEAQyDuj"></path><path d="M118 174L104 160" id="d3VPmu0Paw"></path><path d="M169.64 151.9C169.64 158.8 164.04 164.4 157.14 164.4C150.24 164.4 144.64 158.8 144.64 151.9C144.64 145.01 150.24 139.4 157.14 139.4C164.04 139.4 169.64 145.01 169.64 151.9Z" id="e1wFGgoYtQ"></path><path d="M102.56 143.36L115.99 129.92" id="b5rTASj7CZ"></path><path d="M165.94 143.36L179.37 129.92" id="a1VwWtoK3P"></path></defs><g><g><g><use xlink:href="#bUQkfxQPv" opacity="1" fill-opacity="0" stroke="#000000" stroke-width="1" stroke-opacity="1"></use></g></g><g><use xlink:href="#b2wTbnrI49" opacity="1" fill="#e79219" fill-opacity="1"></use></g><g><use xlink:href="#a3pLJ6TB1e" opacity="1" fill="#24ace9" fill-opacity="1"></use></g><g><g><use xlink:href="#d1ikrrYz80" opacity="1" fill-opacity="0" stroke="#000000" stroke-width="1" stroke-opacity="1"></use></g></g><g><g><use xlink:href="#fchOfLDKX" opacity="1" fill-opacity="0" stroke="#000000" stroke-width="1" stroke-opacity="1"></use></g></g><g><use xlink:href="#ar15qfv3Q" opacity="1" fill="#61c324" fill-opacity="1"></use></g><g><use xlink:href="#l18iP1Ka2J" opacity="1" fill="#f0ec17" fill-opacity="1"></use></g><g><use xlink:href="#b1mEAQyDuj" opacity="1" fill="#61c324" fill-opacity="1"></use></g><g><g><use xlink:href="#d3VPmu0Paw" opacity="1" fill-opacity="0" stroke="#000000" stroke-width="1" stroke-opacity="1"></use></g></g><g><use xlink:href="#e1wFGgoYtQ" opacity="1" fill="#24ace9" fill-opacity="1"></use></g><g><g><use xlink:href="#b5rTASj7CZ" opacity="1" fill-opacity="0" stroke="#000000" stroke-width="1" stroke-opacity="1"></use></g></g><g><g><use xlink:href="#a1VwWtoK3P" opacity="1" fill-opacity="0" stroke="#000000" stroke-width="1" stroke-opacity="1"></use></g></g></g></svg>